<svg width="192" height="42" viewBox="0 0 192 42" fill="none" xmlns="http://www.w3.org/2000/svg">
<path d="M27.7767 21.606L20.05 8.21246H15.7234V8.23044H12.1793V8.94105H15.7234V40.6755H12.1793V41.4221H20.1759V40.6755H16.5149V9.96648L25.9867 26.7242C25.9867 26.7242 26.0407 26.6432 26.0676 26.5983C26.8772 25.276 27.4169 23.8548 27.6777 22.3706C27.7227 22.1188 27.7587 21.8579 27.7857 21.597L27.7767 21.606Z" fill="white"/>
<path d="M48.1864 8.95005V8.23945H44.6963V8.22146H40.7385L30.4032 26.1305L29.4677 24.5114L29.2428 24.1247L29.018 23.7379L28.4243 22.7034C28.1544 24.2686 27.5878 25.7528 26.7332 27.147C26.6523 27.2909 26.5623 27.4258 26.4634 27.5608L26.8951 28.3163L27.066 28.6222L27.237 28.928L28.0105 30.2862L28.4513 31.0598L30.835 26.8681L40.3697 10.0924V40.6845H36.9516V41.4491H47.8086V40.6845H44.6963V8.95005H48.1864Z" fill="white"/>
<path d="M15.3095 32.2924C12.9169 31.4019 11.0009 29.8457 9.57071 27.6419C8.13151 25.4382 7.42089 22.9286 7.42089 20.1221V0.854772H10.6771V0.0182419H0V0.854772H3.34615V20.4459C3.34615 22.9016 3.93082 25.1413 5.10917 27.1832C6.28752 29.2251 7.85266 30.8352 9.82257 32.0405C11.6126 33.1379 13.5825 33.7316 15.7413 33.8305C15.9572 33.8395 16.173 33.8485 16.3889 33.8485C16.4339 33.8485 16.4789 33.8485 16.5239 33.8485V32.6072C16.263 32.5622 16.0021 32.4993 15.7413 32.4273C15.6064 32.3913 15.4624 32.3463 15.3275 32.3014L15.3095 32.2924Z" fill="white"/>
<path d="M33.5784 0.00899008H24.5384V0.845534H28.6132V20.4367C28.6132 21.2103 28.5502 21.9658 28.4243 22.7034C28.1544 24.2686 27.5877 25.7528 26.7332 27.147C26.6522 27.2909 26.5623 27.4258 26.4634 27.5607C26.0226 28.2264 25.5279 28.838 24.9882 29.3957C24.0257 30.3852 22.9103 31.2037 21.633 31.8424C20.4007 32.4271 19.3483 32.6699 18.3049 32.7059C18.008 32.7149 17.7382 32.7149 17.4413 32.6789V33.8213C19.5732 33.7223 21.1383 33.1107 22.9193 32.0223C23.8278 31.4646 24.6553 30.8169 25.3929 30.0793C25.9416 29.5396 26.4454 28.946 26.8951 28.3073C27.156 27.9385 27.4078 27.5607 27.6327 27.165C28.2624 26.0766 28.7211 24.9342 29.0179 23.7289C29.2788 22.6765 29.4047 21.5701 29.4047 20.4277V0.836544H33.5784V0V0.00899008Z" fill="white"/>
<path d="M66.7791 35.0806L65.1599 32.3101H63.217V35.0806H62.5244V28.1544H65.2949C65.8705 28.1544 66.3563 28.3613 66.7611 28.7661C67.1658 29.1708 67.3727 29.6566 67.3727 30.2322C67.3727 30.7 67.2378 31.1227 66.95 31.4915C66.6711 31.8603 66.3203 32.0942 65.8796 32.2201L67.5706 35.0806H66.7791ZM63.217 28.802V31.6534H65.2949C65.6817 31.6534 66.0055 31.5185 66.2753 31.2397C66.5452 30.9518 66.6801 30.619 66.6801 30.2322C66.6801 29.8455 66.5452 29.5037 66.2753 29.2248C66.0055 28.946 65.6817 28.811 65.2949 28.811H63.217V28.802Z" fill="white"/>
<path d="M76.1788 34.4239H79.543V35.0806H75.4862V28.1544H79.498V28.811H76.1788V31.2667H79.2461V31.9233H76.1788V34.4329V34.4239Z" fill="white"/>
<path d="M92.3698 35.0806L91.7312 33.3805H88.448L87.8094 35.0806H87.0807L89.7433 28.1544H90.4539L93.1164 35.0806H92.3878H92.3698ZM88.6909 32.7239H91.4793L90.0851 29.0089L88.6909 32.7239Z" fill="white"/>
<path d="M101.608 34.4239H104.774V35.0806H100.915V28.1544H101.608V34.4239Z" fill="white"/>
<path d="M122.782 34.4239H126.146V35.0806H122.089V28.1544H126.101V28.811H122.782V31.2667H125.849V31.9233H122.782V34.4329V34.4239Z" fill="white"/>
<path d="M133.864 33.5064L134.458 33.1556C134.7 34.0191 135.384 34.5229 136.446 34.5229C137.507 34.5229 138.083 34.0281 138.083 33.2726C138.083 32.9038 137.957 32.6429 137.687 32.454C137.417 32.2651 136.985 32.0762 136.383 31.8783C135.663 31.6444 135.186 31.4556 134.961 31.3027C134.44 30.9878 134.17 30.5291 134.17 29.9264C134.17 29.3237 134.377 28.874 134.781 28.5412C135.186 28.1994 135.69 28.0285 136.293 28.0285C137.372 28.0285 138.191 28.6491 138.577 29.5216L137.993 29.8455C137.678 29.0809 137.111 28.6941 136.293 28.6941C135.474 28.6941 134.853 29.1438 134.853 29.8904C134.853 30.2322 134.97 30.4931 135.213 30.664C135.447 30.8349 135.843 31.0058 136.392 31.1857L136.922 31.3746C137.03 31.4016 137.192 31.4646 137.399 31.5545C137.606 31.6355 137.768 31.7074 137.867 31.7704C138.065 31.8873 138.415 32.1302 138.532 32.3551C138.658 32.5619 138.784 32.8858 138.784 33.2456C138.784 33.8303 138.568 34.307 138.137 34.6578C137.714 34.9996 137.147 35.1795 136.446 35.1795C135.177 35.1795 134.233 34.5498 133.873 33.4884L133.864 33.5064Z" fill="white"/>
<path d="M150.99 28.1454V28.802H148.859V35.0806H148.166V28.802H146.034V28.1454H150.981H150.99Z" fill="white"/>
<path d="M163.026 35.0806L162.387 33.3805H159.104L158.465 35.0806H157.737L160.399 28.1544H161.11L163.772 35.0806H163.044H163.026ZM159.347 32.7239H162.135L160.741 29.0089L159.347 32.7239Z" fill="white"/>
<path d="M175.43 28.1454V28.802H173.298V35.0806H172.605V28.802H170.474V28.1454H175.421H175.43Z" fill="white"/>
<path d="M184.038 34.4239H187.402V35.0806H183.346V28.1544H187.357V28.811H184.038V31.2667H187.105V31.9233H184.038V34.4329V34.4239Z" fill="white"/>
<path d="M66.2933 8.77911V9.02198H64.7192V16.9196C64.7192 20.1308 65.8166 20.9674 67.4897 20.9674C69.8284 20.9674 71.1597 19.807 71.1597 17.1445V9.03097H69.6035V8.78812H73.0216V9.03097H71.4295V17.1625C71.4295 20.0679 69.8914 21.2102 67.3098 21.2102C63.8917 21.2102 62.2366 19.9599 62.2366 17.0905V9.02198H60.6445V8.77911H66.2844H66.2933Z" fill="white"/>
<path d="M79.3002 8.77911L84.9941 16.9106H85.03V9.01299H83.4559V8.77012H86.874V9.01299H85.2999V20.9404H84.8411L77.1504 9.98445H77.1144V20.6975H78.6886V20.9404H75.2704V20.6975H76.8446V9.01299H75.2704V8.77012H79.3002V8.77911Z" fill="white"/>
<path d="M99.6379 8.77911L102.597 17.2884H102.633L105.638 8.77911H109.91V9.02198H108.336V20.7065H109.91V20.9494H104.306V20.7065H105.862V9.02198H105.826L101.626 20.9494H101.356L97.1373 9.02198H97.1013V20.7065H98.6754V20.9494H95.2573V20.7065H96.8315V9.02198H95.2573V8.77911H99.6469H99.6379Z" fill="white"/>
<path d="M118.366 16.2989C117.835 16.2989 117.304 16.164 117.304 15.5614C117.358 15.1476 117.493 14.7608 117.565 14.347C117.565 13.8883 117.124 13.6094 116.522 13.6094C115.118 13.6094 114.678 14.7518 114.678 17.1625C114.678 19.5731 115.136 20.9404 116.818 20.9404C118.132 20.9404 119.094 20.1218 119.382 18.9615L119.625 19.0424C119.202 20.4996 118.141 21.1832 116.621 21.1832C114.93 21.1832 112.384 20.2568 112.384 17.2884C112.384 15.3725 114.057 13.3756 116.585 13.3756C118.294 13.3756 119.49 14.1311 119.49 15.2735C119.49 16.0291 119.076 16.2989 118.375 16.2989H118.366Z" fill="white"/>
<path d="M127.379 8.30238H127.837L133.216 20.7065H134.682V20.9494H128.944V20.7065H130.536L128.557 16.1281H124.455L122.557 20.7065H124.077V20.9494H120.83V20.7065H122.287L127.379 8.30238ZM124.536 15.8852H128.467L126.452 11.2168L124.536 15.8852Z" fill="white"/>
<path d="M146.619 19.4022C145.216 20.5446 143.201 20.9944 141.528 20.9944C140.709 20.9944 139.891 20.9764 139.072 20.9584C138.083 20.9404 137.075 20.9404 136.077 20.9404V20.6975H137.651V9.01299H136.077V8.77012H137.876C138.083 8.77012 140.421 8.71616 141.069 8.71616C145.566 8.71616 148.643 10.713 148.643 14.8508C148.643 16.9736 147.824 18.4218 146.628 19.3932L146.619 19.4022ZM140.124 20.7065L140.88 20.7605C144.019 20.7605 145.854 19.3213 145.854 15.0217C145.854 10.722 144.811 8.96802 141.123 8.96802C140.799 8.96802 140.457 8.986 140.133 9.02198V20.7065H140.124Z" fill="white"/>
<path d="M157.863 21.2013C154.391 21.2013 151.458 18.3318 151.458 14.8957C151.458 11.2078 154.741 8.50928 157.863 8.50928C161.227 8.50928 164.258 11.1448 164.258 14.8508C164.258 18.3048 161.236 21.2102 157.863 21.2102V21.2013ZM160.049 20.3467C161.11 19.4922 161.47 18.2239 161.47 14.7428C161.47 12.9798 161.371 11.7655 161.146 11.0549C160.714 9.61565 159.779 8.75213 157.845 8.75213C156.873 8.75213 156.082 8.995 155.506 9.55269C154.651 10.3712 154.238 11.7925 154.238 14.9047C154.238 19.1774 154.993 20.9674 157.863 20.9674C158.816 20.9674 159.554 20.7605 160.049 20.3557V20.3467Z" fill="white"/>
<path d="M173.091 14.2931V14.383C174.27 14.5899 175.088 14.7968 175.484 15.0127C175.88 15.2196 176.204 15.5074 176.437 15.9032C176.68 16.299 176.815 16.9646 176.878 18.1969C176.95 19.3393 177.067 20.0589 177.148 20.3647C177.247 20.6525 177.436 20.8055 177.832 20.8055C178.29 20.8055 178.533 20.4996 178.785 20.2388L178.956 20.3917C178.326 21.0753 177.859 21.1922 176.959 21.1922C176.105 21.1922 175.457 20.9854 174.998 20.5266C174.539 20.0679 174.315 19.2583 174.297 17.963C174.279 16.6498 174.072 15.7413 173.703 15.2465C173.343 14.7518 172.767 14.5269 172.093 14.5269H170.896V20.6975H172.471V20.9404H166.849V20.6975H168.423V9.01299H166.849V8.77012H169.619C170.231 8.77012 171.4 8.71616 172.219 8.71616C174.746 8.71616 176.455 9.75958 176.455 11.6395C176.455 13.1237 175.223 14.0862 173.091 14.2841V14.2931ZM170.905 14.2931H171.454C172.39 14.2931 172.911 14.1222 173.244 13.8163C173.64 13.4565 173.829 12.9078 173.829 11.8194C173.829 9.7146 173.28 8.96802 171.643 8.96802C171.436 8.96802 171.202 9.00399 170.905 9.02198V14.3021V14.2931Z" fill="white"/>
<path d="M184.695 8.77911V9.02198H183.346L186.836 14.9857L189.984 9.02198H188.5V8.77911H191.765V9.02198H190.281L186.98 15.2915V20.7065H188.572V20.9494H182.932V20.7065H184.506V15.9392L180.539 9.02198H179.19V8.77911H184.713H184.695Z" fill="white"/>
</svg>
